<mxfile host="app.diagrams.net" modified="2020-10-30T05:00:06.893Z" agent="5.0 (Macintosh; Intel Mac OS X 10_14_6) AppleWebKit/605.1.15 (KHTML, like Gecko) Version/13.1.2 Safari/605.1.15" etag="9K8Ro3d1tp-2oYZdCRKd" version="13.8.7" type="github">
  <diagram id="C5RBs43oDa-KdzZeNtuy" name="Page-1">
    <mxGraphModel dx="423" dy="572" grid="1" gridSize="10" guides="1" tooltips="1" connect="1" arrows="1" fold="1" page="1" pageScale="1" pageWidth="1169" pageHeight="827" background="#114B5F" math="0" shadow="0">
      <root>
        <mxCell id="WIyWlLk6GJQsqaUBKTNV-0" />
        <mxCell id="WIyWlLk6GJQsqaUBKTNV-1" parent="WIyWlLk6GJQsqaUBKTNV-0" />
        <mxCell id="zkfFHV4jXpPFQw0GAbJ--0" value="Card" style="swimlane;fontStyle=2;align=center;verticalAlign=top;childLayout=stackLayout;horizontal=1;startSize=26;horizontalStack=0;resizeParent=1;resizeLast=0;collapsible=1;marginBottom=0;rounded=0;shadow=0;strokeWidth=1;fillColor=#F45B69;strokeColor=#028090;fontColor=#E4FDE1;" parent="WIyWlLk6GJQsqaUBKTNV-1" vertex="1">
          <mxGeometry x="380" y="120" width="200" height="208" as="geometry">
            <mxRectangle x="230" y="140" width="160" height="26" as="alternateBounds" />
          </mxGeometry>
        </mxCell>
        <mxCell id="zkfFHV4jXpPFQw0GAbJ--1" value="               Variables:&#xa;-int rank(where it ranks in the deck)&#xa;-int value(number of the card)" style="text;align=left;verticalAlign=top;spacingLeft=4;spacingRight=4;overflow=hidden;rotatable=0;points=[[0,0.5],[1,0.5]];portConstraint=eastwest;fontColor=#E4FDE1;" parent="zkfFHV4jXpPFQw0GAbJ--0" vertex="1">
          <mxGeometry y="26" width="200" height="64" as="geometry" />
        </mxCell>
        <mxCell id="zkfFHV4jXpPFQw0GAbJ--2" value="                 Methods:&#xa;-setRank() sets the suit&#xa;-setValue() sets the # value on card&#xa;-getRank() gets the suit&#xa;-getValue() gets the #value&#xa;-print() prints out the card suit &amp; #" style="text;align=left;verticalAlign=top;spacingLeft=4;spacingRight=4;overflow=hidden;rotatable=0;points=[[0,0.5],[1,0.5]];portConstraint=eastwest;rounded=0;shadow=0;html=0;fontColor=#E4FDE1;" parent="zkfFHV4jXpPFQw0GAbJ--0" vertex="1">
          <mxGeometry y="90" width="200" height="110" as="geometry" />
        </mxCell>
        <mxCell id="zkfFHV4jXpPFQw0GAbJ--4" value="" style="line;html=1;strokeWidth=1;align=left;verticalAlign=middle;spacingTop=-1;spacingLeft=3;spacingRight=3;rotatable=0;labelPosition=right;points=[];portConstraint=eastwest;fillColor=#F45B69;strokeColor=#028090;fontColor=#E4FDE1;labelBackgroundColor=#114B5F;" parent="zkfFHV4jXpPFQw0GAbJ--0" vertex="1">
          <mxGeometry y="200" width="200" height="8" as="geometry" />
        </mxCell>
        <mxCell id="gSPEsKiK15MEoC6zZ7qB-2" value="&lt;font style=&quot;font-size: 17px&quot;&gt;Blackjack Game&lt;br&gt;Savanna Dodson&lt;/font&gt;" style="text;html=1;align=center;verticalAlign=middle;resizable=0;points=[];autosize=1;fontColor=#E4FDE1;" vertex="1" parent="WIyWlLk6GJQsqaUBKTNV-1">
          <mxGeometry x="420" y="40" width="150" height="40" as="geometry" />
        </mxCell>
        <mxCell id="gSPEsKiK15MEoC6zZ7qB-4" value="Deck(contains all the cards)&#xa;" style="swimlane;fontStyle=2;align=center;verticalAlign=top;childLayout=stackLayout;horizontal=1;startSize=30;horizontalStack=0;resizeParent=1;resizeLast=0;collapsible=1;marginBottom=0;rounded=0;shadow=0;strokeWidth=1;fillColor=#F45B69;strokeColor=#028090;fontColor=#E4FDE1;" vertex="1" parent="WIyWlLk6GJQsqaUBKTNV-1">
          <mxGeometry x="10" y="113" width="240" height="222" as="geometry">
            <mxRectangle x="230" y="140" width="160" height="26" as="alternateBounds" />
          </mxGeometry>
        </mxCell>
        <mxCell id="gSPEsKiK15MEoC6zZ7qB-5" value="               Variables:&#xa;-int Size(the amount of cards in the deck)&#xa;-int remainingAmount(cards left in the deck)" style="text;align=left;verticalAlign=top;spacingLeft=4;spacingRight=4;overflow=hidden;rotatable=0;points=[[0,0.5],[1,0.5]];portConstraint=eastwest;fontColor=#E4FDE1;" vertex="1" parent="gSPEsKiK15MEoC6zZ7qB-4">
          <mxGeometry y="30" width="240" height="64" as="geometry" />
        </mxCell>
        <mxCell id="gSPEsKiK15MEoC6zZ7qB-6" value="                 Methods:&#xa;- deal() deals out cards to the players&#xa;- shuffle() shuffles the cards *rando&#xa;-reset() starts the deck back over" style="text;align=left;verticalAlign=top;spacingLeft=4;spacingRight=4;overflow=hidden;rotatable=0;points=[[0,0.5],[1,0.5]];portConstraint=eastwest;rounded=0;shadow=0;html=0;fontColor=#E4FDE1;" vertex="1" parent="gSPEsKiK15MEoC6zZ7qB-4">
          <mxGeometry y="94" width="240" height="110" as="geometry" />
        </mxCell>
        <mxCell id="gSPEsKiK15MEoC6zZ7qB-7" value="" style="line;html=1;strokeWidth=1;align=left;verticalAlign=middle;spacingTop=-1;spacingLeft=3;spacingRight=3;rotatable=0;labelPosition=right;points=[];portConstraint=eastwest;fillColor=#F45B69;strokeColor=#028090;fontColor=#E4FDE1;labelBackgroundColor=#114B5F;" vertex="1" parent="gSPEsKiK15MEoC6zZ7qB-4">
          <mxGeometry y="204" width="240" height="8" as="geometry" />
        </mxCell>
        <mxCell id="gSPEsKiK15MEoC6zZ7qB-8" value="" style="resizable=0;align=left;verticalAlign=bottom;labelBackgroundColor=none;fontSize=12;fillColor=#F45B69;strokeColor=#028090;fontColor=#E4FDE1;" connectable="0" vertex="1" parent="WIyWlLk6GJQsqaUBKTNV-1">
          <mxGeometry x="200" y="228" as="geometry" />
        </mxCell>
        <mxCell id="gSPEsKiK15MEoC6zZ7qB-10" value="Player" style="swimlane;fontStyle=2;align=center;verticalAlign=top;childLayout=stackLayout;horizontal=1;startSize=26;horizontalStack=0;resizeParent=1;resizeLast=0;collapsible=1;marginBottom=0;rounded=0;shadow=0;strokeWidth=1;fillColor=#F45B69;strokeColor=#028090;fontColor=#E4FDE1;" vertex="1" parent="WIyWlLk6GJQsqaUBKTNV-1">
          <mxGeometry x="680" y="120" width="290" height="258" as="geometry">
            <mxRectangle x="230" y="140" width="160" height="26" as="alternateBounds" />
          </mxGeometry>
        </mxCell>
        <mxCell id="gSPEsKiK15MEoC6zZ7qB-11" value="                                Variables:&#xa;- int amountMoney(how much money they have)&#xa;-string name(identifies the player)&#xa;-int Hand(what cards the player has)&#xa;-int Total(amount of money won/lost)" style="text;align=left;verticalAlign=top;spacingLeft=4;spacingRight=4;overflow=hidden;rotatable=0;points=[[0,0.5],[1,0.5]];portConstraint=eastwest;fontColor=#E4FDE1;" vertex="1" parent="gSPEsKiK15MEoC6zZ7qB-10">
          <mxGeometry y="26" width="290" height="114" as="geometry" />
        </mxCell>
        <mxCell id="gSPEsKiK15MEoC6zZ7qB-12" value="                                 Methods:&#xa;- bet() Amount the player is betting&#xa;-win() How much money the player will win&#xa;-hit() gets a card and the value of the hand goes up" style="text;align=left;verticalAlign=top;spacingLeft=4;spacingRight=4;overflow=hidden;rotatable=0;points=[[0,0.5],[1,0.5]];portConstraint=eastwest;rounded=0;shadow=0;html=0;fontColor=#E4FDE1;" vertex="1" parent="gSPEsKiK15MEoC6zZ7qB-10">
          <mxGeometry y="140" width="290" height="110" as="geometry" />
        </mxCell>
        <mxCell id="gSPEsKiK15MEoC6zZ7qB-13" value="" style="line;html=1;strokeWidth=1;align=left;verticalAlign=middle;spacingTop=-1;spacingLeft=3;spacingRight=3;rotatable=0;labelPosition=right;points=[];portConstraint=eastwest;fillColor=#F45B69;strokeColor=#028090;fontColor=#E4FDE1;labelBackgroundColor=#114B5F;" vertex="1" parent="gSPEsKiK15MEoC6zZ7qB-10">
          <mxGeometry y="250" width="290" height="8" as="geometry" />
        </mxCell>
        <mxCell id="gSPEsKiK15MEoC6zZ7qB-14" value="Hand&#xa;" style="swimlane;fontStyle=2;align=center;verticalAlign=top;childLayout=stackLayout;horizontal=1;startSize=26;horizontalStack=0;resizeParent=1;resizeLast=0;collapsible=1;marginBottom=0;rounded=0;shadow=0;strokeWidth=1;fillColor=#F45B69;strokeColor=#028090;fontColor=#E4FDE1;" vertex="1" parent="WIyWlLk6GJQsqaUBKTNV-1">
          <mxGeometry x="465" y="430" width="240" height="200" as="geometry">
            <mxRectangle x="230" y="140" width="160" height="26" as="alternateBounds" />
          </mxGeometry>
        </mxCell>
        <mxCell id="gSPEsKiK15MEoC6zZ7qB-15" value="               Variables:&#xa;- int sizeOfHand&#xa;-int remainingHand" style="text;align=left;verticalAlign=top;spacingLeft=4;spacingRight=4;overflow=hidden;rotatable=0;points=[[0,0.5],[1,0.5]];portConstraint=eastwest;fontColor=#E4FDE1;" vertex="1" parent="gSPEsKiK15MEoC6zZ7qB-14">
          <mxGeometry y="26" width="240" height="64" as="geometry" />
        </mxCell>
        <mxCell id="gSPEsKiK15MEoC6zZ7qB-16" value="                 Methods:&#xa;- Shuffle() re-arrange the deck of cards&#xa;-Sort() put cards in order in your hand&#xa;-Discard() player chooses a card to remove&#xa;" style="text;align=left;verticalAlign=top;spacingLeft=4;spacingRight=4;overflow=hidden;rotatable=0;points=[[0,0.5],[1,0.5]];portConstraint=eastwest;rounded=0;shadow=0;html=0;fontColor=#E4FDE1;" vertex="1" parent="gSPEsKiK15MEoC6zZ7qB-14">
          <mxGeometry y="90" width="240" height="110" as="geometry" />
        </mxCell>
        <mxCell id="gSPEsKiK15MEoC6zZ7qB-17" value="" style="line;html=1;strokeWidth=1;align=left;verticalAlign=middle;spacingTop=-1;spacingLeft=3;spacingRight=3;rotatable=0;labelPosition=right;points=[];portConstraint=eastwest;fillColor=#F45B69;strokeColor=#028090;fontColor=#E4FDE1;labelBackgroundColor=#114B5F;" vertex="1" parent="gSPEsKiK15MEoC6zZ7qB-14">
          <mxGeometry y="200" width="240" as="geometry" />
        </mxCell>
        <mxCell id="gSPEsKiK15MEoC6zZ7qB-18" value="Game" style="swimlane;fontStyle=2;align=center;verticalAlign=top;childLayout=stackLayout;horizontal=1;startSize=26;horizontalStack=0;resizeParent=1;resizeLast=0;collapsible=1;marginBottom=0;rounded=0;shadow=0;strokeWidth=1;fillColor=#F45B69;strokeColor=#028090;fontColor=#E4FDE1;" vertex="1" parent="WIyWlLk6GJQsqaUBKTNV-1">
          <mxGeometry x="35" y="426" width="330" height="208" as="geometry">
            <mxRectangle x="230" y="140" width="160" height="26" as="alternateBounds" />
          </mxGeometry>
        </mxCell>
        <mxCell id="gSPEsKiK15MEoC6zZ7qB-19" value="                                Variables:&#xa;- int AmountOfPlayers (all the people playing in the game)&#xa;- string DealerOrPlayer (decides whether dealer or player)&#xa;- int deal (call deck class to deal out cards)&#xa;" style="text;align=left;verticalAlign=top;spacingLeft=4;spacingRight=4;overflow=hidden;rotatable=0;points=[[0,0.5],[1,0.5]];portConstraint=eastwest;fontColor=#E4FDE1;" vertex="1" parent="gSPEsKiK15MEoC6zZ7qB-18">
          <mxGeometry y="26" width="330" height="64" as="geometry" />
        </mxCell>
        <mxCell id="gSPEsKiK15MEoC6zZ7qB-20" value="                                Methods:&#xa;- Print() prints out the cards the dealer dealt&#xa;- AcceptBets() Accepts the bets from players&#xa;- DealCards() deals out the cards to the players&#xa;- Hit() when the dealer hits" style="text;align=left;verticalAlign=top;spacingLeft=4;spacingRight=4;overflow=hidden;rotatable=0;points=[[0,0.5],[1,0.5]];portConstraint=eastwest;rounded=0;shadow=0;html=0;fontColor=#E4FDE1;" vertex="1" parent="gSPEsKiK15MEoC6zZ7qB-18">
          <mxGeometry y="90" width="330" height="110" as="geometry" />
        </mxCell>
        <mxCell id="gSPEsKiK15MEoC6zZ7qB-21" value="" style="line;html=1;strokeWidth=1;align=left;verticalAlign=middle;spacingTop=-1;spacingLeft=3;spacingRight=3;rotatable=0;labelPosition=right;points=[];portConstraint=eastwest;fillColor=#F45B69;strokeColor=#028090;fontColor=#E4FDE1;labelBackgroundColor=#114B5F;" vertex="1" parent="gSPEsKiK15MEoC6zZ7qB-18">
          <mxGeometry y="200" width="330" height="8" as="geometry" />
        </mxCell>
        <mxCell id="gSPEsKiK15MEoC6zZ7qB-22" value="" style="shape=flexArrow;endArrow=classic;html=1;strokeColor=#028090;fillColor=#F45B69;fontColor=#E4FDE1;" edge="1" parent="WIyWlLk6GJQsqaUBKTNV-1">
          <mxGeometry width="50" height="50" relative="1" as="geometry">
            <mxPoint x="280" y="260" as="sourcePoint" />
            <mxPoint x="350" y="260" as="targetPoint" />
          </mxGeometry>
        </mxCell>
        <mxCell id="gSPEsKiK15MEoC6zZ7qB-23" value="" style="shape=flexArrow;endArrow=classic;html=1;strokeColor=#028090;fillColor=#F45B69;fontColor=#E4FDE1;" edge="1" parent="WIyWlLk6GJQsqaUBKTNV-1">
          <mxGeometry width="50" height="50" relative="1" as="geometry">
            <mxPoint x="590" y="270" as="sourcePoint" />
            <mxPoint x="680" y="270" as="targetPoint" />
          </mxGeometry>
        </mxCell>
        <mxCell id="gSPEsKiK15MEoC6zZ7qB-24" value="" style="shape=flexArrow;endArrow=classic;html=1;strokeColor=#028090;fillColor=#F45B69;fontColor=#E4FDE1;exitX=0.483;exitY=0.25;exitDx=0;exitDy=0;exitPerimeter=0;" edge="1" parent="WIyWlLk6GJQsqaUBKTNV-1" source="gSPEsKiK15MEoC6zZ7qB-13" target="gSPEsKiK15MEoC6zZ7qB-15">
          <mxGeometry width="50" height="50" relative="1" as="geometry">
            <mxPoint x="790" y="440" as="sourcePoint" />
            <mxPoint x="840" y="390" as="targetPoint" />
            <Array as="points">
              <mxPoint x="820" y="440" />
            </Array>
          </mxGeometry>
        </mxCell>
        <mxCell id="gSPEsKiK15MEoC6zZ7qB-25" value="" style="shape=flexArrow;endArrow=classic;html=1;strokeColor=#028090;fillColor=#F45B69;fontColor=#E4FDE1;" edge="1" parent="WIyWlLk6GJQsqaUBKTNV-1">
          <mxGeometry width="50" height="50" relative="1" as="geometry">
            <mxPoint x="454" y="550" as="sourcePoint" />
            <mxPoint x="374" y="550" as="targetPoint" />
          </mxGeometry>
        </mxCell>
      </root>
    </mxGraphModel>
  </diagram>
</mxfile>
